<svg width="45" height="43" viewBox="0 0 45 43" fill="none" xmlns="http://www.w3.org/2000/svg">
<path d="M41.8482 18.4296H42.6725C43.9623 18.4296 45 17.4028 45 16.1264V3.84243C45 2.91153 44.4375 2.06701 43.5647 1.71193C42.6919 1.35684 41.6931 1.54878 41.0239 2.21096L36.9897 6.20326C28.4944 -2.09803 14.8109 -2.06923 6.36415 6.29922C-2.12138 14.6965 -2.12138 28.3048 6.36415 36.7021C14.8497 45.0993 28.6011 45.0993 37.0866 36.7021C38.2989 35.5025 38.2989 33.5543 37.0866 32.3547C35.8744 31.1551 33.9058 31.1551 32.6936 32.3547C26.6325 38.3527 16.8086 38.3527 10.7475 32.3547C4.68644 26.3567 4.68644 16.635 10.7475 10.637C16.7795 4.66776 26.5258 4.63897 32.5966 10.541L28.6108 14.4949C27.9417 15.1571 27.7477 16.1456 28.1065 17.0093C28.4653 17.873 29.3187 18.4296 30.2594 18.4296H41.8482Z" fill="white" fill-opacity="0.7"/>
</svg>
