<svg width="45" height="43" viewBox="0 0 45 43" fill="none" xmlns="http://www.w3.org/2000/svg">
<path d="M3.15177 18.4296H2.32746C1.03766 18.4296 0 17.4028 0 16.1264V3.84243C0 2.91153 0.562469 2.06701 1.43527 1.71193C2.30807 1.35684 3.30693 1.54878 3.97608 2.21096L8.01035 6.20326C16.5056 -2.09803 30.1891 -2.06923 38.6358 6.29922C47.1214 14.6965 47.1214 28.3048 38.6358 36.7021C30.1503 45.0993 16.3989 45.0993 7.91337 36.7021C6.70115 35.5025 6.70115 33.5543 7.91337 32.3547C9.12559 31.1551 11.0942 31.1551 12.3064 32.3547C18.3675 38.3527 28.1914 38.3527 34.2525 32.3547C40.3136 26.3567 40.3136 16.635 34.2525 10.637C28.2205 4.66776 18.4742 4.63897 12.4034 10.541L16.3892 14.4949C17.0583 15.1571 17.2523 16.1456 16.8935 17.0093C16.5347 17.873 15.6813 18.4296 14.7406 18.4296H3.15177Z" fill="white" fill-opacity="0.7"/>
</svg>
